name Walk5.mot
datacolumns 19
datarows 25
range 2.20600000 2.23000000
endheader

                time	   L_ground_force_vx	   L_ground_force_vy	   L_ground_force_vz	   L_ground_force_px	   L_ground_force_py	   L_ground_force_pz	   R_ground_force_vx	   R_ground_force_vy	   R_ground_force_vz	   R_ground_force_px	   R_ground_force_py	   R_ground_force_pz	   L_ground_torque_x	   L_ground_torque_y	   L_ground_torque_z	   R_ground_torque_x	   R_ground_torque_y	   R_ground_torque_z	
          2.20600000	          1.66734063	         88.62100185	         -6.98635617	          0.00122437	          0.00000000	          0.00118182	          0.00000000	         -0.00000000	         -0.00000000	         -0.00000000	          0.00000000	         -0.00000000	          0.00000000	          0.13812312	          0.00000000	          0.00000000	         -0.00000000	          0.00000000	
          2.20700000	          1.28401362	         97.12330245	         -8.00126605	         -0.01389377	          0.00000000	          0.00020160	          0.00000000	         -0.00000000	         -0.00000000	         -0.00000000	          0.00000000	         -0.00000000	          0.00000000	          0.15548597	          0.00000000	          0.00000000	         -0.00000000	          0.00000000	
          2.20800000	          0.85496154	        105.85783053	         -9.03786576	         -0.02895952	          0.00000000	         -0.00077293	          0.00000000	         -0.00000000	         -0.00000000	         -0.00000000	          0.00000000	         -0.00000000	          0.00000000	          0.17434045	          0.00000000	          0.00000000	         -0.00000000	          0.00000000	
          2.20900000	          0.37779739	        114.81296662	        -10.09459435	         -0.04392836	          0.00000000	         -0.00173880	          0.00000000	         -0.00000000	         -0.00000000	         -0.00000000	          0.00000000	         -0.00000000	          0.00000000	          0.19473888	          0.00000000	          0.00000000	         -0.00000000	          0.00000000	
          2.21000000	         -0.14987838	        123.97545492	        -11.16975513	         -0.05875568	          0.00000000	         -0.00269300	          0.00000000	         -0.00000000	         -0.00000000	         -0.00000000	          0.00000000	         -0.00000000	          0.00000000	          0.21673075	          0.00000000	          0.00000000	         -0.00000000	          0.00000000	
          2.21100000	         -0.73046839	        133.33034289	        -12.26152342	         -0.07339787	          0.00000000	         -0.00363267	          0.00000000	         -0.00000000	         -0.00000000	         -0.00000000	          0.00000000	         -0.00000000	          0.00000000	          0.24036186	          0.00000000	          0.00000000	         -0.00000000	          0.00000000	
          2.21200000	         -1.36636575	        142.86099325	        -13.36797369	         -0.08781421	          0.00000000	         -0.00455514	          0.00000000	         -0.00000000	         -0.00000000	         -0.00000000	          0.00000000	         -0.00000000	          0.00000000	          0.26567327	          0.00000000	          0.00000000	         -0.00000000	          0.00000000	
          2.21300000	         -2.05993900	        152.54912840	        -14.48710800	         -0.10196799	          0.00000000	         -0.00545806	          0.00000000	         -0.00000000	         -0.00000000	         -0.00000000	          0.00000000	         -0.00000000	          0.00000000	          0.29270037	          0.00000000	          0.00000000	         -0.00000000	          0.00000000	
          2.21400000	         -2.81351421	        162.37488947	        -15.61687404	         -0.11582658	          0.00000000	         -0.00633941	          0.00000000	         -0.00000000	         -0.00000000	         -0.00000000	          0.00000000	         -0.00000000	          0.00000000	          0.32147255	          0.00000000	          0.00000000	         -0.00000000	          0.00000000	
          2.21500000	         -3.62935319	        172.31693835	        -16.75517513	         -0.12936130	          0.00000000	         -0.00719744	          0.00000000	         -0.00000000	         -0.00000000	         -0.00000000	          0.00000000	         -0.00000000	          0.00000000	          0.35201329	          0.00000000	          0.00000000	         -0.00000000	          0.00000000	
          2.21600000	         -4.50962530	        182.35263153	        -17.89987383	         -0.14254710	          0.00000000	         -0.00803065	          0.00000000	         -0.00000000	         -0.00000000	          0.00000000	          0.00000000	          0.00000000	          0.00000000	          0.38434041	          0.00000000	          0.00000000	         -0.00000000	          0.00000000	
          2.21700000	         -5.45636996	        192.45828467	        -19.04878818	         -0.15536245	          0.00000000	         -0.00883784	          0.00000000	         -0.00000000	         -0.00000000	          0.00000000	          0.00000000	          0.00000000	          0.00000000	          0.41846645	          0.00000000	          0.00000000	         -0.00000000	          0.00000000	
          2.21800000	         -6.47144664	        202.60953717	        -20.19968046	         -0.16778905	          0.00000000	         -0.00961799	          0.00000000	         -0.00000000	         -0.00000000	          0.00000000	          0.00000000	          0.00000000	          0.00000000	          0.45439895	          0.00000000	          0.00000000	         -0.00000000	          0.00000000	
          2.21900000	         -7.55646984	        212.78180952	        -21.35023960	         -0.17981167	          0.00000000	         -0.01037035	          0.00000000	         -0.00000000	         -0.00000000	          0.00000000	          0.00000000	          0.00000000	          0.00000000	          0.49214068	          0.00000000	          0.00000000	         -0.00000000	          0.00000000	
          2.22000000	         -8.71272910	        222.95082606	        -22.49806029	         -0.19141792	          0.00000000	         -0.01109433	          0.00000000	         -0.00000000	          0.00000000	          0.00000000	          0.00000000	          0.00000000	          0.00000000	          0.53168966	          0.00000000	          0.00000000	         -0.00000000	          0.00000000	
          2.22100000	         -9.94109742	        233.09315771	        -23.64062381	         -0.20259808	          0.00000000	         -0.01178956	         -0.00000000	         -0.00000000	          0.00000000	          0.00000000	          0.00000000	          0.00000000	          0.00000000	          0.57303910	          0.00000000	          0.00000000	         -0.00000000	          0.00000000	
          2.22200000	        -11.24193479	        243.18672981	        -24.77528692	         -0.21334490	          0.00000000	         -0.01245586	         -0.00000000	         -0.00000000	          0.00000000	          0.00000000	          0.00000000	          0.00000000	          0.00000000	          0.61617725	          0.00000000	          0.00000000	          0.00000000	          0.00000000	
          2.22300000	        -12.61499619	        253.21124216	        -25.89928477	         -0.22365340	          0.00000000	         -0.01309320	         -0.00000000	         -0.00000000	          0.00000000	          0.00000000	          0.00000000	          0.00000000	          0.00000000	          0.66108704	          0.00000000	          0.00000000	          0.00000000	          0.00000000	
          2.22400000	        -14.05935417	        263.14846081	        -27.00975202	         -0.23352075	          0.00000000	         -0.01370170	         -0.00000000	         -0.00000000	          0.00000000	          0.00000000	          0.00000000	          0.00000000	          0.00000000	          0.70774576	          0.00000000	          0.00000000	          0.00000000	          0.00000000	
          2.22500000	        -15.57334427	        272.98236120	        -28.10376273	         -0.24294602	          0.00000000	         -0.01428162	         -0.00000000	         -0.00000000	          0.00000000	          0.00000000	          0.00000000	          0.00000000	          0.00000000	          0.75612458	          0.00000000	          0.00000000	          0.00000000	          0.00000000	
          2.22600000	        -17.15453838	        282.69912332	        -29.17838595	         -0.25193009	          0.00000000	         -0.01483334	         -0.00000000	          0.00000000	          0.00000000	          0.00000000	          0.00000000	          0.00000000	          0.00000000	          0.80618792	          0.00000000	          0.00000000	          0.00000000	          0.00000000	
          2.22700000	        -18.79974640	        292.28699880	        -30.23075126	         -0.26047547	          0.00000000	         -0.01535734	         -0.00000000	          0.00000000	          0.00000000	          0.00000000	          0.00000000	          0.00000000	          0.00000000	          0.85789282	          0.00000000	          0.00000000	          0.00000000	          0.00000000	
          2.22800000	        -20.50504289	        301.73608219	        -31.25811682	         -0.26858615	          0.00000000	         -0.01585418	         -0.00000000	          0.00000000	          0.00000000	          0.00000000	          0.00000000	          0.00000000	          0.00000000	          0.91118829	          0.00000000	          0.00000000	          0.00000000	          0.00000000	
          2.22900000	        -22.26581308	        311.03802485	        -32.25793267	         -0.27626745	          0.00000000	         -0.01632450	         -0.00000000	          0.00000000	          0.00000000	          0.00000000	          0.00000000	          0.00000000	          0.00000000	          0.96601469	          0.00000000	          0.00000000	          0.00000000	          0.00000000	
          2.23000000	        -24.07681164	        320.18572860	        -33.22789339	         -0.28352592	          0.00000000	         -0.01676898	         -0.00000000	          0.00000000	          0.00000000	          0.00000000	          0.00000000	          0.00000000	          0.00000000	          1.02230316	          0.00000000	          0.00000000	          0.00000000	          0.00000000	
